<svg xmlns="http://www.w3.org/2000/svg" viewBox="26 26 76 76" width="128" height="128">
  <!-- Right bubble only from official WeChat icon - centered -->
  <g transform="translate(64, 64) scale(0.32)">
    <!-- Only the right (larger) bubble path -->
    <path d="M343.37 275.112c24.333-17.635 39.886-43.726 39.886-72.71 0-53.132-51.685-96.198-115.439-96.198-63.754 0-115.435 43.066-115.435 96.198 0 53.129 51.681 96.194 115.435 96.194 13.174 0 25.89-1.88 37.68-5.272a11.59 11.59 0 0 1 3.397-.505c2.212 0 4.23.673 6.126 1.774l25.272 14.587c.706.408 1.387.719 2.224.719a3.847 3.847 0 0 0 3.847-3.852c0-.946-.378-1.9-.618-2.808-.147-.543-3.263-12.157-5.201-19.406-.223-.811-.404-1.598-.404-2.451a7.687 7.687 0 0 1 3.23-6.27m-114.036-88.1c-8.493 0-15.385-6.89-15.385-15.393 0-8.502 6.892-15.394 15.385-15.394 8.507 0 15.394 6.892 15.394 15.394 0 8.502-6.887 15.394-15.394 15.394m76.961 0c-8.498 0-15.39-6.892-15.39-15.394 0-8.502 6.892-15.394 15.39-15.394 8.503 0 15.39 6.892 15.39 15.394 0 8.502-6.887 15.394-15.39 15.394z"
          fill="#07C160"
          transform="translate(-268, -202)"/>
  </g>

  <!-- White "M" below bubble center, with "↓" on the right of M -->
  <g transform="translate(58, 80)">
    <!-- M letter -->
    <text x="0" y="0"
          font-family="Arial, sans-serif"
          font-size="28"
          font-weight="900"
          fill="white"
          text-anchor="middle"
          dominant-baseline="middle">M</text>

    <!-- Down arrow on the right side of M -->
    <g transform="translate(18, 0)">
      <!-- Arrow shaft -->
      <rect x="-1.5" y="-7" width="3" height="9" fill="white" rx="0.5"/>
      <!-- Arrow head -->
      <path d="M 0 6 L -5 0 L 5 0 Z" fill="white"/>
    </g>
  </g>
</svg>
